<svg xmlns="http://www.w3.org/2000/svg" viewBox="0 0 495 495" width="495" height="495">
  <g stroke-linejoin="round" stroke="#000" stroke-dashoffset=".9">
    <path stroke-width="2" fill="#fff"
      d="M117.323 32.692c-11.395.026-22.497 2.782-29.656 12.156-5.183 5.863-6.677 19.333-16.781 16.906-16.432-2.748-28.67 9.738-40.406 19.094-4.921 8.212-15.843 13.829-15.625 24.312l.875 5.375c7.14 5.708 17.093-.18 25.469 2.344 15.552 3.004 34.35-2.243 41.219-17.656.54-10.78 4.679 7.223 5.438 11.25-.919 10.437 5.925 19.15 6.218 29.188-4.207 7.825-6.462 20.368 1.25 26.78 8.117 1.415 8.562 11.398 13.812 16.626 8.034 7.96 5.374 19.815 10.125 29.28 3.438 6.018 9.227 11.225 5.875 18.876-2.713 9.46-4.485 20.112 2.594 28.28-1.005 7.788 2.118 14.888 7.125 20.47-1.14 9.167 6.658 12.302 13 5.75 4.842 6.607 13.22 6.566 20.656 6.594 1.494 18.344 3.988 36.645 9.875 54.156 8.364 16.95 5.13 36.277 3.688 54.25 2.187 8.087-.491 15.549-3.907 22.75-3.861 9.597 7.285 20.748 16.688 15.969 10.512-1.191 3.608-13.666 6.25-20.438 7.844-14.686 1.87-31.27 2.25-47.062.605-4.025-1.464-23.638 2.313-14.906 12.235 20.04 6.395 44.163 4 66 1.596 13.66-9.593 24.877-8.844 38.188 8.197 4.654 18.624 2.345 27.594 1.062 4.008-9.544 2.07-20.476 5.281-30.344 5.728-6.24 3.408-15.402 1.875-23.094-1.044-21.84-5.706-44.475 1.031-65.812-1.492-24.678-5.664-66.484-.406-74.625 6.242-9.663 17.281-9.024 26.562-8.5 9.385.53 23.447-.102 25.72 11.562 1.968 7.974 4.069 22.035 15.437 19.031 10.598-.57 24.611-1.713 25.375-15.188 8.995-2.541 14.954-9.958 21.97-15.562 8.393-4.194 15.158-13.863 24.437-14.219 7.658 3.868 17.535 8.96 19.062 18.312 4.836 19.635 12.076 38.465 21.094 56.562 6.35 26.585 12.135 53.947 11.156 81.562-3.365 14.044 1.719 30.334-8.656 42.25-9.871 11.743 2.791 27.03 16.938 20.531 10.956-2.719 5.398-16.476 17.594-19.312-3.274-9.078 9.689-14.549 6.719-23.812-2.046-28.9.281-57.707 2.312-86.53.26-15.095 6.464-31.21-.343-45.47 3.135-2.7 8.679-12.943 4.968-22.03-6.747-11.61 4.347-21.678 7.094-32.5 10.01-19.266 5.812-41.273 4.656-62-2.57-16.55-4.358-33.885-11.156-49.313-7.833-20.73-30.76-27.929-50.188-33.562-12.26-.47-20.74-10.68-32.77-11.85-18.727 2.024-37.577 6.672-56.688 5.875-30.342 3.627-60.59 9.574-91.312 8.406-11.727 1.612-22.876-1.708-33.5-6.406-10.646-1.092-14.329-13.802-24.562-15.219-8.35 2.257-10.846-6.613-16.938-10.375-4.44-9.79-11.32-21.716-23.81-21.905-6.23-1.117-13.19-2.078-20.03-2.063zm342.9 100.19c7.532 34.464 12.8 79.726 1 108.91-7.92 14.349-12.563 24.518-13.5 19.656-2.269-5.279-2.127-11.148-3.469-16.656-.709-14.852 3.644-31.081 8.375-43.938 3.222-8.719 5.087-17.854 6.438-27.031 1.454-8.623 1.969-17.422 1.78-26.156-.314-4.931-.496-9.842-.624-14.781z" />
    <path fill="none"
      d="M234.313 270.78c1.523-5.348 2.534-10.868 4.553-16.05 1.148-2.947 2.694-5.732 4.269-8.475 2.497-4.352 5.452-8.425 8.192-12.628" />
    <path stroke-width="2" fill="none"
      d="M204.333 351.44l-3.15-15.773-1.473-15.222-.49-16.696-3.93-18.169-4.91-19.151-3.928-13.258-3.929-12.276" />
    <path fill="none"
      d="M147.543 282l-1.084-6.005-1.041-3.819.694-5.555.694-7.292-1.389-6.25.348-12.5-1.736-12.5.694-12.153.694-8.333 3.473-9.375 4.166-9.375 2.431-9.375 1.736-8.334.347-7.986" />
    <path fill="none"
      d="M127.023 168.35s4.122 1.615 4.514 3.472c1.197 5.676-9.69 9.638-8.333 15.278 1.344 5.587 12.372 4.287 14.236 9.722 2.208 6.44-4.795 12.794-6.25 19.444-2.069 9.453-6.802 19.734-3.473 28.82 2.283 6.228 14.15 6.922 14.583 13.541.286 4.348-9.461 5.862-8.333 10.07 1.119 4.173 12.153 4.513 12.153 4.513" />
    <path stroke-width="2" fill="none"
      d="M448.543 262.1s1.198 5.387 2.341 7.876c1.139 2.479 4.43 6.881 4.43 6.881l6.25 9.375" />
    <path stroke-width="2" fill="none"
      d="M446.463 221.82c-1.974 6.093-6.05 13.477-5.894 20.038-1.153 6.863.527 13.707 1.336 20.509 2.46 7.359 3.497 15.306 7.83 21.89 3.113 6.077 6.93 11.909 9.572 18.157 1.674 6.396.035 13.012-.181 19.506-2.71 26.064-5.009 52.171-7.589 78.244-.371 10.449-1.882 20.94-.734 31.378-1.854 2.654-4.111 5.265-4.166 8.68-1.893 2.648-2.786 4.08-3.393 5.714-.027 1.163-.227 5.798-.253 6.96M460.463 133.6c-1.964-10.435-7.366-18.169-7.366-18.169-2.326-3.895-6.19-8.087-10.803-11.049" />
    <path fill="none"
      d="M376.043 241.29c-3.542-2.981-7.518-6.993-10.932-10.122-4.427-5.468-7.831-8.76-12.046-10.036-4.707-1.238-9.722-.463-14.583-.694" />
    <path stroke-width="2" fill="none"
      d="M192.103 76.89c7.476 10.09 15.295 20.023 21.61 30.888 2.017 4.038 5.787 10.939.392 13.835-7.757.704-15.322-1.823-23.06-2.068-5.237-.675-10.818-.647-15.195-3.975-4.611-1.808-7.252-5.924-10.038-9.756-1.988-2.212-3.258-4.793-3.703-7.721l-2.416-9.664c-4.945-.614-1.36 7.73-2.48 10.894-.241 6.196.94 12.743-.886 18.633-2.74 8.832-7.136 17.17-11.964 25.065-2.969 3.922-6.108 7.832-6.025 12.96-3.025 4.674-9.843 4.714-11.844 10.607-4.354 5.532-11.21 2.31-16.877 3.655-2.344-.09-6.59-2.41-8.848-3" />
    <path
      d="M95.593 138.32c3.226 1.27 9.044 2.695 12.483 3.262 5.773-.64 7.74-.536 12.132-3.165.826-.453 1.562-1.17 2.566-.965.764.06 1.62-.211 2.241.361.47.386 1.442.497 1.124 1.32-.004 3.882-2.979 6.938-3.35 10.732-.323 3.91 1.773 7.501 1.797 11.372-4.361 2.815-9.745 2.878-14.757 2.99-3.807.038-7.537-1.488-10.295-4.099-1.185-1.036-2.43-2.127-2.51-3.813-.376-2.01-.721-4.061-.702-6.108l.14-2.512-2.605-.868c-1.472-2.652-.416-5.883 1.393-8.08l.17-.215.173-.212zM142.383 91.5c.777-.941 1.77-1.74 2.332-2.824.782-2.475 1.343-4.94 2.824-7.12 1.114-.966 3.1-3.052 4.297-2.946 1.38.722 1.344 2.336 1.213 3.594-.343 3.297-1.968 6.837-5.055 8.564-1.874.216-3.745.45-5.61.732zM83.703 77.38c2.892 2.65 4.126 7.109 4.675 10.502l.113 2.02c-1.6.365-2.558-.456-3.55-1.218-1.694-1.3-3.337-3.197-3.57-5.32-.235-2.128.12-5.042 2.332-5.984z" />
    <path fill="none"
      d="M432.473 123.05c-14.731 22.588-30.445 24.552-30.445 24.552M203.643 103.9c-2.12-6.465-6.712-12.673-10.561-17.45-4.114-4.858-8.152-8.995-13.132-12.013M32.263 96.53c3.543-7.567 7.733-15.014 14.594-19.209 5.075-3.103 11.55-3.803 17.57-3.134" />
  </g>
</svg>